<svg width="100%" height="100%" viewBox="0 0 900 900" fill="#004894" xmlns="http://www.w3.org/2000/svg" >
<path d="M0-0L0+900L900+900L900-0L0-0ZM50+50L850+50L850+850L50+850L50+50ZM547.812+349C484.742+349+465.219+383.802+465.219+409.281C465.219+450.352+515.472+461.291+517.031+461.781C524.55+464.149+555.73+472.497+563.531+475.281C570.273+477.691+576.75+483.096+576.75+490.312C576.75+501.398+563.529+506.75+552.531+506.75C545.476+506.75+521.75+504.409+521.75+479.25L461.469+479.25C461.469+512.657+484.432+550.031+548.906+550.031C620.059+550.031+634.969+507.591+634.969+485.031C634.969+466.612+624.525+446.171+600.438+436.438C585.96+430.589+561.954+425.491+549.906+421.969C543.817+420.182+523.563+416.071+523.562+403.719C523.562+387.89+549.655+389.938+545.844+389.938C557.642+389.938+571.188+396.575+571.188+411.094L629.531+411.094C629.531+378.885+605.307+349+547.812+349ZM644.844+354.656L644.562+544.562L702.781+544.562L702.781+486.094L781+486.094L781+438.188L703.031+438.188L703.031+404.75L790.5+404.75L790.5+354.656L644.844+354.656ZM110.062+354.688L110+544.594L216+544.594C262.733+544.594+282.562+515.633+282.562+488.344C282.562+465.525+270.49+450.737+248.312+442.531C265.91+432.31+272.438+421.295+272.438+404.25C272.438+380.575+254.715+354.688+215.875+354.688L110.062+354.688ZM342.719+354.688L272.875+544.25L335.188+544.25L343+515.969L401.625+515.969L410.812+544.375L473.625+544.375L403.938+354.688L342.719+354.688ZM167.969+398.688L202.781+398.688C217.729+398.688+218.406+411.089+218.406+413.312C218.406+422.922+212.825+429.469+198.75+429.469L167.969+429.469L167.969+398.688ZM370.844+411L389.219+474.344L354.688+474.344L370.844+411ZM167.844+467.625L208.062+467.625C227.653+467.625+225.906+487.333+225.906+483.344C225.906+491.966+219.773+501.719+206.125+501.719L167.844+501.719L167.844+467.625Z"/>
</svg>
