<svg width="900" height="900" viewBox="0 0 900 900" fill="none" xmlns="http://www.w3.org/2000/svg">
<path d="M110.05 354.687H215.876C254.716 354.687 272.447 380.582 272.447 404.257C272.447 421.302 265.903 432.323 248.306 442.544C270.483 450.75 282.554 465.532 282.554 488.351C282.554 515.64 262.744 544.59 216.011 544.59H110L110.05 354.687ZM167.835 501.72H206.125C219.773 501.72 225.901 491.968 225.901 483.346C225.901 487.335 227.658 467.61 208.068 467.61H167.835V501.72ZM167.97 429.454H198.739C212.814 429.454 218.413 422.913 218.413 413.304C218.413 411.08 217.726 398.689 202.778 398.689H167.97V429.454Z" fill="#004894"/>
<path d="M342.732 354.687H403.934L473.612 544.381H410.812L401.618 515.961H342.991L335.202 544.235H272.877L342.732 354.687ZM370.841 410.988L354.688 474.329H389.214L370.841 410.988Z" fill="#004894"/>
<path d="M571.197 411.094H629.534C629.534 378.885 605.299 349 547.804 349C484.734 349 465.205 383.808 465.205 409.287C465.205 450.358 515.48 461.286 517.039 461.776C524.558 464.144 555.74 472.504 563.541 475.288C570.283 477.698 576.743 483.101 576.743 490.318C576.743 501.404 563.541 506.741 552.543 506.741C545.488 506.741 521.754 504.405 521.754 479.246H461.467C461.467 512.653 484.443 550.025 548.917 550.025C620.07 550.025 634.956 507.583 634.956 485.023C634.956 466.604 624.514 446.184 600.426 436.45C585.949 430.602 561.953 425.482 549.905 421.96C543.816 420.173 523.561 416.071 523.561 403.719C523.561 387.89 549.665 389.936 545.854 389.936C557.652 389.936 571.197 396.575 571.197 411.094Z" fill="#004894"/>
<path d="M644.85 354.647H790.487V404.759H703.046V438.194H781.015V486.087H702.767V544.554H644.571L644.85 354.647Z" fill="#004894"/>
<rect x="27" y="27" width="846" height="846" stroke="#004894" stroke-width="54"/>
</svg>
