<svg enable-background="new 0 0 1000 1000" viewBox="0 0 1000 1000" xmlns="http://www.w3.org/2000/svg">
<path d="m3793.8 4775.9c-57.4-9.6-176.1-51.7-262.3-93.8-482.5-237.4-698.8-802.2-495.9-1300l44-111.1-668.1-557-668.2-557.1-90 57.4c-216.3 134-511.2 181.9-756.2 124.4-377.2-88.1-681.6-388.7-769.6-762-122.5-520.7 189.5-1056.8 708.4-1211.9l76.6-23 5.7-1447.4 3.8-1447.4-80.4-23c-153.2-40.2-310.1-135.9-438.4-264.2-538-538-331.2-1428.2 392.5-1682.9 168.5-59.4 440.3-67 601.2-17.2 329.3 101.5 566.7 329.3 685.4 652.9l42.1 116.8 1445.5 5.7 1445.5 3.8 32.6-103.4c97.6-306.3 333.1-547.5 649-658.6 168.5-59.4 440.4-67 601.2-17.2 409.7 126.4 693.1 469.1 740.9 896 15.3 134-17.2 333.1-74.7 478.6l-45.9 111.1 633.7 530.3c350.4 291 649 541.8 666.3 557.1 26.8 23 44.1 19.1 124.4-32.5 220.2-135.9 513.1-183.8 760.1-126.4 377.2 88.1 681.6 388.7 769.6 762 122.4 518.9-195.4 1060.8-706.6 1212l-78.5 23-5.7 1447.4-3.8 1447.4 99.6 28.7c327.4 95.7 614.6 402.1 695 740.9 164.6 698.8-434.6 1349.7-1141.1 1244.4-377.2-57.4-723.7-356.1-830.9-717.9l-23-78.5-1447.4-5.7-1445.5-3.8-42.1 124.4c-113 337-405.9 595.4-760.1 670.1-143.6 30.6-231.7 32.5-388.7 7.6zm402.1-436.5c149.3-57.4 256.5-157 329.3-302.5 51.7-107.2 61.3-147.4 61.3-264.2 0-340.8-270-608.8-610.7-608.8-235.5 0-442.3 130.2-547.6 342.7-61.3 128.3-72.7 333.1-24.9 471 45.9 132.1 229.7 321.6 352.3 365.7 122.5 42 321.6 40.1 440.3-3.9zm4901.2 0c149.3-57.4 256.6-157 329.3-302.5 51.7-107.2 61.3-147.4 61.3-264.2 0-340.8-270-608.8-610.7-608.8-421.2 0-710.3 415.5-570.5 819.4 44 126.4 229.7 315.9 350.4 359.9 122.4 42.1 321.5 40.2 440.2-3.8zm-1213.8-800.3c5.8-19.1 30.6-88.1 53.6-151.2l44-118.7-668.1-555.2-668.2-557.1-90 55.5c-296.8 183.8-683.5 197.2-1003.2 36.4-225.9-114.9-446.1-382.9-511.2-626.1l-23-80.4h-1445.4c-1359.3 0-1445.5 1.9-1455 34.5-5.7 17.2-30.6 86.2-55.5 153.2l-45.9 120.6 635.6 528.4c350.4 291 649 539.9 666.3 555.2 26.8 23 44 19.1 124.4-30.6 386.7-239.3 894.1-189.5 1229.1 122.5 124.4 114.9 239.3 296.8 283.4 446.1l28.7 99.6h1445.5c1359.2-.1 1445.3-2 1454.9-32.7zm459.5-637.5c49.8-30.6 143.6-74.7 210.6-95.7l122.5-42.1v-1451.3-1451.2l-65.1-11.5c-118.7-23-331.2-143.6-438.4-250.8-302.5-296.8-392.5-731.4-235.5-1120l45.9-111-668.2-557.1-668.2-557.1-88.1 57.4c-49.8 30.6-143.6 74.7-210.6 95.7l-122.5 42.1 3.8 1447.4 5.7 1447.4 80.4 23c461.4 134 783 631.8 716 1104.7-11.5 84.2-42.1 201-68.9 258.5l-49.8 107.2 44 42.1c44 42.1 1284.6 1079.8 1292.3 1079.8 2.2-.1 44.3-25 94.1-57.5zm-6967-1005.2c384.8-174.2 471-698.8 164.6-987.9-130.2-124.4-222.1-160.8-417.4-160.8-143.6 0-187.6 7.7-266.1 46-371.4 183.8-461.4 656.7-185.7 966.8 172.3 189.5 463.4 247 704.6 135.9zm4899.3 0c122.5-53.6 235.5-164.6 296.7-289.1 38.3-78.5 46-122.5 46-266.1 0-149.3-7.7-185.7-51.7-269.9-65.1-124.4-218.2-262.3-335-302.5-201-68.9-442.2-23-608.8 112.9-95.7 78.5-193.4 256.6-210.6 394.4-24.9 172.3 67 409.7 201 522.7 195.2 164.7 438.4 199.1 662.4 97.6zm-1227.2-859.6c95.7-302.5 335-547.6 639.4-654.8l126.4-44 5.7-1445.5 3.8-1445.5-80.4-23c-315.9-84.2-618.4-386.7-702.6-702.6l-23-80.4-1445.5 3.8-1445.5 5.7-44 126.3c-105.3 298.7-338.9 532.3-635.6 629.9l-122.5 42.1v1451.2 1451.4l65.1 11.5c126.4 24.9 327.4 141.7 448 264.2 122.5 120.6 239.3 321.6 264.2 448l11.5 65.1h1451.2 1451.2zm4056.9-1602.5c195.3-72.7 354.2-277.6 384.8-497.8 15.3-109.1-26.8-292.9-93.8-394.4-88.1-139.8-204.8-222.1-377.1-266.1-147.4-38.3-256.6-24.9-415.5 51.7-361.9 174.2-442.3 664.3-158.9 961.1 67 72.8 174.2 137.8 269.9 168.5 95.7 28.8 283.4 17.3 390.6-23zm-7730.9-2439.1c122.5-53.6 235.5-164.6 296.8-289.1 38.3-78.5 45.9-122.5 45.9-266.1 0-149.3-7.7-185.7-51.7-269.9-65.1-124.4-218.3-262.3-335-302.5-201-68.9-442.3-23-608.8 113-95.7 78.5-193.4 256.6-210.6 394.4-15.3 99.6 26.8 291 80.4 377.2 168.4 271.8 495.8 373.2 783 243zm4901.2 0c122.5-53.6 235.5-164.6 296.7-289.1 38.3-78.5 46-122.5 46-266.1 0-149.3-7.7-185.7-51.7-268-187.6-354.2-635.6-446.1-943.9-191.5-95.7 78.5-193.4 256.6-210.6 394.4-15.3 99.6 26.8 291 80.4 377.2 166.6 270 495.9 373.3 783.1 243.1z" transform="matrix(.1 0 0 -.1 0 511)" fill="currentColor"/>
</svg>
