<svg width="500" height="500" viewBox="0 0 500 500" fill="none" xmlns="http://www.w3.org/2000/svg">
<path d="M204.082 73.6469C201.92 74.0087 197.451 75.5954 194.205 77.1821C176.038 86.1293 167.894 107.416 175.533 126.177L177.19 130.364L152.034 151.357L126.875 172.353L123.486 170.19C115.342 165.14 104.238 163.334 95.0132 165.501C80.8106 168.822 69.3491 180.151 66.0356 194.22C61.4232 213.845 73.1708 234.049 92.7088 239.895L95.593 240.762L95.8076 295.312L95.9507 349.862L92.9234 350.729C87.155 352.244 81.2473 355.851 76.4165 360.687C56.1593 380.963 63.9459 414.513 91.1952 424.113C97.5397 426.351 107.774 426.638 113.832 424.761C126.231 420.936 135.17 412.35 139.639 400.154L141.224 395.752L195.651 395.537L250.078 395.394L251.306 399.291C254.981 410.835 263.848 419.925 275.742 424.113C282.087 426.351 292.325 426.638 298.379 424.761C313.806 419.997 324.476 407.081 326.276 390.992C326.852 385.942 325.628 378.438 323.463 372.954L321.735 368.767L345.596 348.781C358.789 337.813 370.032 328.361 370.684 327.785C371.693 326.918 372.344 327.065 375.368 329.009C383.659 334.131 394.687 335.937 403.987 333.773C418.19 330.453 429.652 319.124 432.965 305.055C437.574 285.498 425.608 265.075 406.36 259.376L403.404 258.509L403.189 203.959L403.046 149.408L406.796 148.327C419.124 144.72 429.938 133.172 432.965 120.403C439.163 94.0666 416.601 69.5351 390 73.5037C375.797 75.667 362.75 86.9246 358.714 100.56L357.848 103.519L303.349 103.734L248.922 103.877L247.337 99.1884C243.082 86.4874 232.054 76.7487 218.717 73.9334C213.31 72.7801 209.993 72.7085 204.082 73.6469V73.6469ZM219.222 90.098C224.843 92.2613 228.88 96.0151 231.621 101.499C233.568 105.539 233.929 107.054 233.929 111.456C233.929 124.3 223.763 134.401 210.935 134.401C202.067 134.401 194.281 129.494 190.316 121.485C188.008 116.65 187.579 108.931 189.378 103.734C191.107 98.755 198.027 91.6131 202.643 89.951C207.256 88.3681 214.753 88.4397 219.222 90.098V90.098ZM403.765 90.098C409.387 92.2613 413.427 96.0151 416.164 101.499C418.111 105.539 418.472 107.054 418.472 111.456C418.472 124.3 408.306 134.401 395.478 134.401C379.619 134.401 368.733 118.741 373.997 103.519C375.654 98.755 382.646 91.613 387.191 89.9548C391.799 88.3681 399.296 88.4397 403.765 90.098V90.098ZM358.062 120.26C358.281 120.98 359.215 123.58 360.081 125.959L361.737 130.432L336.582 151.357L311.422 172.353L308.033 170.262C296.858 163.334 282.298 162.829 270.26 168.89C261.754 173.22 253.463 183.321 251.012 192.486L250.146 195.517H195.723C144.542 195.517 141.296 195.445 140.938 194.216C140.724 193.568 139.786 190.968 138.848 188.442L137.12 183.897L161.052 163.983C174.246 153.015 185.489 143.635 186.14 143.058C187.149 142.191 187.797 142.338 190.824 144.211C205.385 153.23 224.49 151.353 237.103 139.594C241.787 135.264 246.113 128.408 247.774 122.781L248.855 119.028H303.282C354.459 119.031 357.701 119.103 358.062 120.26V120.26ZM375.364 144.287C377.239 145.44 380.771 147.102 383.294 147.893L387.906 149.48V204.177V258.871L385.455 259.304C380.985 260.171 372.984 264.717 368.948 268.757C357.558 279.943 354.169 296.322 360.081 310.968L361.809 315.151L336.649 336.148L311.49 357.144L308.173 354.981C306.298 353.827 302.766 352.165 300.243 351.374L295.631 349.787L295.774 295.237L295.988 240.686L299.016 239.819C316.388 234.769 328.498 216.008 325.975 198.185C325.542 195.012 324.39 190.61 323.381 188.442L321.505 184.402L323.162 182.816C324.819 181.229 371.531 142.119 371.821 142.119C371.904 142.123 373.489 143.062 375.364 144.287ZM113.038 182.171C127.526 188.736 130.772 208.508 119.235 219.404C114.333 224.092 110.872 225.464 103.519 225.464C98.112 225.464 96.4553 225.174 93.4995 223.73C79.5153 216.803 76.1266 198.98 86.5074 187.293C92.995 180.151 103.956 177.984 113.038 182.171ZM297.509 182.171C302.122 184.191 306.377 188.375 308.681 193.067C310.123 196.025 310.413 197.684 310.413 203.096C310.413 208.723 310.123 210.095 308.466 213.268C306.015 217.956 300.251 223.154 295.853 224.669C288.284 227.265 279.203 225.536 272.93 220.414C269.326 217.455 265.648 210.743 265 205.549C264.063 199.056 267.523 190.108 272.568 185.849C279.918 179.642 289.075 178.346 297.509 182.171V182.171ZM251.302 214.568C254.905 225.969 263.916 235.206 275.377 239.247L280.136 240.905L280.351 295.384L280.494 349.862L277.467 350.729C265.572 353.903 254.182 365.303 251.012 377.209L250.146 380.239L195.719 380.096L141.292 379.881L139.635 375.121C135.671 363.864 126.875 355.06 115.703 351.381L111.091 349.795V295.101V240.4L113.542 239.966C118.301 239.028 125.87 234.626 130.41 230.009C135.023 225.464 139.421 217.889 140.358 213.125L140.791 210.671H195.433H250.075L251.302 214.568ZM404.055 274.964C411.409 277.704 417.392 285.426 418.544 293.725C419.12 297.837 417.535 304.764 415.012 308.59C411.695 313.859 407.301 316.96 400.813 318.619C395.263 320.062 391.152 319.557 385.169 316.67C371.542 310.105 368.515 291.634 379.186 280.448C381.708 277.704 385.745 275.254 389.348 274.097C392.951 273.012 400.019 273.445 404.055 274.964V274.964ZM112.966 366.89C117.578 368.91 121.833 373.094 124.141 377.786C125.583 380.744 125.87 382.403 125.87 387.815C125.87 393.442 125.58 394.814 123.923 397.987C121.472 402.675 115.703 407.873 111.309 409.388C103.741 411.984 94.6555 410.255 88.3863 405.129C84.7829 402.17 81.1042 395.458 80.4566 390.265C79.8805 386.511 81.4657 379.297 83.4839 376.048C89.8246 365.805 102.152 361.983 112.966 366.89ZM297.509 366.89C302.122 368.91 306.377 373.094 308.681 377.786C310.123 380.744 310.413 382.403 310.413 387.815C310.413 393.442 310.123 394.814 308.466 397.915C301.403 411.265 284.534 414.728 272.926 405.133C269.323 402.174 265.644 395.462 264.996 390.268C264.42 386.515 266.005 379.301 268.024 376.052C274.297 365.876 286.696 361.983 297.509 366.89Z" fill="currentColor"/>
</svg>
