<svg width="900" height="900" viewBox="0 0 900 900" fill="none" xmlns="http://www.w3.org/2000/svg">
<path d="M184.399 375.585C237.485 375.585 271.069 413.232 271.069 458.193C271.069 501.528 238.568 540.8 183.858 540.8C131.314 540.8 98 501.798 98 458.193C98 413.503 132.126 375.585 184.399 375.585ZM184.399 519.674C220.421 519.674 247.235 493.402 247.235 458.193C247.235 422.712 220.692 396.711 184.399 396.711C148.648 396.711 121.834 422.712 121.834 458.193C121.834 493.402 148.648 519.674 184.399 519.674Z" fill="#A7A9AC" stroke="#A7A9AC" stroke-width="9"/>
<path d="M337.697 377.752C370.198 377.752 390.511 395.086 390.511 422.712C390.511 441.4 380.761 455.213 363.698 462.255C378.324 472.006 387.261 486.902 399.449 506.945C406.22 518.049 410.283 523.466 421.388 538.904H393.762L372.636 505.861C351.51 472.547 341.76 468.756 329.842 468.756H320.092V538.633H297.07V377.752H337.697ZM320.363 447.901H335.259C360.177 447.901 367.219 435.171 366.948 421.629C366.677 406.461 357.739 397.253 335.259 397.253H320.363V447.901Z" fill="#A7A9AC" stroke="#A7A9AC" stroke-width="9"/>
<path d="M564.393 413.503C544.622 401.857 527.558 396.711 508.87 396.711C472.035 396.711 444.68 422.983 444.68 458.463C444.68 494.486 471.223 519.674 509.954 519.674C528.1 519.674 547.872 513.174 566.018 501.528V526.716C550.309 535.112 532.975 540.8 507.787 540.8C447.389 540.8 420.846 494.215 420.846 460.63C420.846 411.607 457.952 375.585 509.141 375.585C525.663 375.585 542.455 379.648 564.393 388.856V413.503Z" fill="#A7A9AC" stroke="#A7A9AC" stroke-width="9"/>
<path d="M653.501 377.752H716.066C775.652 377.752 801.653 420.274 801.653 458.193C801.653 499.632 769.422 538.633 716.066 538.633H653.23V377.752H653.501ZM676.794 518.049H713.628C765.901 518.049 778.089 478.235 778.089 458.193C778.089 425.962 757.505 398.336 712.545 398.336H676.794V518.049V518.049Z" fill="#A6CE39" stroke="#A6CE39" stroke-width="9"/>
<path d="M621.271 538.633H598.249V377.752H621.271V467.401V538.633Z" fill="#A6CE39" stroke="#A6CE39" stroke-width="9"/>
<path d="M625.063 344.167C625.063 352.563 618.291 359.335 609.895 359.335C601.499 359.335 594.728 352.563 594.728 344.167C594.728 335.771 601.499 329 609.895 329C618.021 329 625.063 335.771 625.063 344.167Z" fill="#A6CE39" stroke="#A6CE39" stroke-width="9"/>
<rect x="18" y="18" width="864" height="864" rx="27" stroke="#A6CE39" stroke-width="36"/>
</svg>
