<svg viewBox="0 0 900 900" fill="none" xmlns="http://www.w3.org/2000/svg"><title>ORCID</title>
<path fill-rule="evenodd" clip-rule="evenodd" d="M45 0C20.1472 0 0 20.1472 0 45V855C0 879.853 20.1472 900 45 900H855C879.853 900 900 879.853 900 855V45C900 20.1472 879.853 0 855 0H45ZM261.872 458.613C261.872 411.342 226.561 371.76 170.747 371.76C115.787 371.76 79.9065 411.627 79.9065 458.613C79.9065 504.461 114.933 545.467 170.177 545.467C227.7 545.467 261.872 504.176 261.872 458.613ZM236.812 458.613C236.812 495.633 208.621 523.255 170.747 523.255C133.158 523.255 104.966 495.633 104.966 458.613C104.966 421.309 133.158 393.972 170.747 393.972C208.905 393.972 236.812 421.309 236.812 458.613ZM331.924 374.038C366.096 374.038 387.454 392.263 387.454 421.309C387.454 440.958 377.202 455.481 359.262 462.885C374.431 472.998 383.78 488.375 396.331 509.017L396.331 509.017L396.851 509.871C403.155 520.211 407.227 525.86 416.184 538.29L416.185 538.292L416.21 538.326C417.36 539.922 418.591 541.63 419.917 543.474H390.871L368.659 508.732C346.447 473.706 336.196 469.72 323.666 469.72H313.414V543.189H289.209V374.038H331.924ZM313.699 447.793H329.361C355.56 447.793 362.964 434.409 362.679 420.17C362.394 404.223 352.997 394.541 329.361 394.541H313.699V447.793ZM511.896 393.972C531.545 393.972 549.485 399.382 570.273 411.627V385.713C547.207 376.031 529.552 371.76 512.181 371.76C458.36 371.76 419.347 409.634 419.347 461.176C419.347 496.487 447.254 545.467 510.757 545.467C537.24 545.467 555.465 539.487 571.982 530.659V504.176C552.903 516.421 532.115 523.255 513.035 523.255C472.314 523.255 444.407 496.772 444.407 458.898C444.407 421.594 473.168 393.972 511.896 393.972ZM663.961 374.038H729.742C792.391 374.038 819.728 418.746 819.728 458.614C819.728 502.183 785.841 543.189 729.742 543.189H663.677V374.038H663.961ZM688.451 521.547H727.179C782.139 521.547 794.954 479.686 794.954 458.614C794.954 424.727 773.311 395.68 726.04 395.68H688.451V521.547ZM634.061 338.727C634.061 347.555 626.942 354.674 618.114 354.674C609.286 354.674 602.167 347.555 602.167 338.727C602.167 329.899 609.286 322.78 618.114 322.78C626.657 322.78 634.061 329.899 634.061 338.727ZM630.074 543.189H605.869V374.038H630.074V468.296V543.189Z" fill="#A6CE39"/>
</svg>
