<svg width="835" height="652" viewBox="0 0 835 652" fill="none" xmlns="http://www.w3.org/2000/svg">
<path d="M283.955 1.75647C260.949 7.92583 100.031 55.3528 96.0467 57.0237C93.4761 58.1804 90.1344 60.3654 88.7206 61.9078C86.5356 64.2213 10.4468 198.662 2.60656 213.957C-0.735183 220.512 -0.863711 226.553 2.22097 231.951C5.81977 238.634 406.057 648.512 410.427 650.054C416.211 652.11 421.738 651.596 426.879 648.383C431.634 645.555 827.502 240.048 831.743 233.75C833.286 231.565 834.057 227.967 834.057 223.597C834.057 216.785 833.029 214.857 790.871 142.624C767.094 101.752 746.143 66.5348 744.473 64.2213C742.673 61.9078 738.817 58.8231 735.99 57.5378C733.034 56.124 686.892 42.7571 633.553 27.7192L536.514 0.342651L413.769 0.0855713C308.504 -0.171486 289.996 0.0856001 283.955 1.75647ZM591.652 55.6099C625.584 65.2495 653.603 73.2183 653.732 73.4753C654.374 73.9895 416.982 133.37 414.155 133.37C410.299 133.37 175.991 73.8609 176.763 73.0897C177.148 72.7041 202.982 64.7354 234.215 55.4813L291.024 38.5156L410.427 38.3871L529.83 38.2585L591.652 55.6099ZM678.923 107.921C678.023 109.463 600.778 210.358 571.602 248.017L558.878 264.469L505.538 214.085L452.327 163.702L565.047 135.169C627.126 119.489 678.409 106.507 678.923 106.507C679.566 106.379 679.566 107.15 678.923 107.921ZM265.062 135.426C325.213 150.721 374.825 163.574 375.21 163.831C375.982 164.602 277.143 263.183 275.601 263.183C274.958 263.055 247.967 229.509 215.835 188.508C148.101 102.266 152.214 107.664 154.013 107.664C154.784 107.664 204.782 120.131 265.062 135.426ZM757.582 160.746C773.52 188.251 786.244 211.129 785.859 211.515C784.83 212.543 612.474 259.327 611.96 258.685C611.703 258.428 637.408 224.625 669.026 183.496C700.644 142.495 726.993 109.335 727.507 109.849C728.021 110.363 741.516 133.37 757.582 160.746ZM172.007 284.776L259.92 308.811L277.143 349.94C299.893 403.922 325.598 464.716 344.621 509.187C352.975 528.852 359.658 545.175 359.53 545.432C359.144 545.817 119.182 299.942 95.2756 274.622C87.9494 266.911 82.4227 260.613 83.0653 260.741C83.5795 260.741 123.68 271.538 172.007 284.776ZM531.63 313.566C528.288 322.306 418.396 581.548 417.753 582.191C417.368 582.705 409.27 565.097 400.016 542.99C390.634 520.883 365.314 460.989 343.592 409.706C322 358.423 303.877 315.494 303.62 314.209C302.977 312.153 309.018 312.024 417.625 312.024C508.88 312.024 532.144 312.41 531.63 313.566Z" fill="black"/>
</svg>
